<svg width="1692" height="814" viewBox="0 0 1692 814" fill="none" xmlns="http://www.w3.org/2000/svg">
<rect x="176" y="721" width="1516" height="93" rx="46.5" fill="#313F40" fill-opacity="0.5"/>
<path d="M143.21 0H1540.79C1574.6 0 1602 27.4046 1602 61.21V601.79C1602 635.595 1574.6 663 1540.79 663H143.21C109.405 663 82 635.595 82 601.79V61.21C82 27.4046 109.405 0 143.21 0Z" fill="#FBFFFC"/>
<path d="M82 573V611.19C82 624.931 87.4585 638.109 97.1748 647.825C106.891 657.541 120.069 663 133.81 663H1550.19C1563.93 663 1577.11 657.541 1586.83 647.825C1596.54 638.109 1602 624.931 1602 611.19V573H82Z" fill="#0084CA"/>
<path d="M82 81H1603V418H82V81Z" fill="#4D4D4D"/>
<path d="M82 81H1603V418H82V81Z" fill="#4D4D4D"/>
<path d="M492.95 95.3901H819.44C822.179 95.3901 824.4 97.6108 824.4 100.35V399.02C824.4 401.759 822.179 403.98 819.44 403.98H492.95C490.211 403.98 487.99 401.759 487.99 399.02V100.35C487.99 97.6108 490.211 95.3901 492.95 95.3901Z" fill="#9DD6E6" stroke="black" stroke-width="10" stroke-miterlimit="10"/>
<path d="M850.25 95.3901H1176.74C1179.48 95.3901 1181.7 97.6108 1181.7 100.35V399.02C1181.7 401.759 1179.48 403.98 1176.74 403.98H850.25C847.51 403.98 845.29 401.759 845.29 399.02V100.35C845.29 97.6108 847.51 95.3901 850.25 95.3901Z" fill="#9DD6E6" stroke="black" stroke-width="10" stroke-miterlimit="10"/>
<path d="M1207.55 95.3901H1534.04C1536.78 95.3901 1539 97.6108 1539 100.35V399.02C1539 401.759 1536.78 403.98 1534.04 403.98H1207.55C1204.81 403.98 1202.59 401.759 1202.59 399.02V100.35C1202.59 97.6108 1204.81 95.3901 1207.55 95.3901Z" fill="#9DD6E6" stroke="black" stroke-width="10" stroke-miterlimit="10"/>
<path d="M819.42 97H493.01C491.684 97 490.412 97.5268 489.474 98.4645C488.537 99.4021 488.01 100.674 488.01 102V193H824.42V102C824.42 100.674 823.893 99.4021 822.955 98.4645C822.018 97.5268 820.746 97 819.42 97Z" fill="#9DD6E6" stroke="black" stroke-width="10" stroke-miterlimit="10"/>
<path d="M1176.7 97H850.29C848.964 97 847.692 97.5268 846.754 98.4645C845.816 99.4021 845.29 100.674 845.29 102V193H1181.7V102C1181.7 100.674 1181.17 99.4021 1180.24 98.4645C1179.3 97.5268 1178.03 97 1176.7 97Z" fill="#9DD6E6" stroke="black" stroke-width="10" stroke-miterlimit="10"/>
<path d="M1534 97H1207.59C1206.26 97 1204.99 97.5268 1204.05 98.4645C1203.12 99.4021 1202.59 100.674 1202.59 102V193H1539V102C1539 100.674 1538.47 99.4021 1537.54 98.4645C1536.6 97.5268 1535.33 97 1534 97Z" fill="#9DD6E6" stroke="black" stroke-width="10" stroke-miterlimit="10"/>
<path d="M1207.94 650.55C1207.94 654.74 1208.12 658.9 1208.47 663H1497.42C1497.77 658.9 1497.95 654.74 1497.95 650.55C1497.95 612.093 1482.67 575.212 1455.48 548.019C1428.29 520.827 1391.41 505.55 1352.95 505.55C1314.49 505.55 1277.61 520.827 1250.42 548.019C1223.23 575.212 1207.95 612.093 1207.95 650.55H1207.94Z" fill="#0084CA"/>
<path d="M468.37 650.55C468.37 654.74 468.55 658.9 468.9 663H757.84C758.19 658.9 758.37 654.74 758.37 650.55C758.37 612.093 743.093 575.212 715.9 548.019C688.708 520.827 651.826 505.55 613.37 505.55C574.913 505.55 538.032 520.827 510.839 548.019C483.647 575.212 468.37 612.093 468.37 650.55Z" fill="#0084CA"/>
<path d="M1225.74 650.55C1225.73 675.712 1233.18 700.312 1247.14 721.24C1261.11 742.167 1280.98 758.482 1304.22 768.119C1327.46 777.757 1353.04 780.285 1377.72 775.383C1402.4 770.481 1425.07 758.37 1442.87 740.582C1460.66 722.793 1472.78 700.127 1477.69 675.449C1482.6 650.771 1480.09 625.191 1470.46 601.945C1460.83 578.698 1444.52 558.83 1423.6 544.852C1402.68 530.875 1378.08 523.416 1352.92 523.42C1336.22 523.411 1319.68 526.692 1304.25 533.077C1288.82 539.462 1274.8 548.826 1262.99 560.632C1251.18 572.438 1241.81 586.456 1235.42 601.885C1229.03 617.313 1225.74 633.85 1225.74 650.55Z" fill="#263442"/>
<path d="M1264.42 650.55C1264.41 668.07 1269.59 685.201 1279.31 699.775C1289.04 714.348 1302.87 725.71 1319.05 732.423C1335.23 739.135 1353.04 740.896 1370.23 737.484C1387.41 734.072 1403.2 725.639 1415.59 713.252C1427.98 700.865 1436.42 685.082 1439.84 667.899C1443.26 650.715 1441.5 632.904 1434.79 616.718C1428.09 600.533 1416.73 586.7 1402.16 576.971C1387.59 567.241 1370.46 562.052 1352.94 562.06C1341.31 562.05 1329.8 564.331 1319.06 568.774C1308.32 573.217 1298.56 579.734 1290.33 587.953C1282.11 596.172 1275.59 605.931 1271.15 616.672C1266.7 627.413 1264.41 638.925 1264.42 650.55Z" fill="#999999"/>
<path d="M1282.55 650.55C1282.54 664.467 1286.66 678.074 1294.39 689.65C1302.11 701.225 1313.1 710.25 1325.95 715.582C1338.81 720.914 1352.96 722.313 1366.61 719.604C1380.26 716.894 1392.8 710.197 1402.64 700.36C1412.49 690.522 1419.19 677.986 1421.91 664.337C1424.63 650.688 1423.24 636.54 1417.92 623.681C1412.6 610.821 1403.58 599.83 1392.01 592.095C1380.44 584.361 1366.84 580.232 1352.92 580.23C1334.27 580.251 1316.39 587.665 1303.2 600.847C1290.01 614.028 1282.58 631.902 1282.55 650.55Z" fill="#263442"/>
<path d="M1273.57 639.09H1321.59L1287.64 605.21L1303.79 589.01L1337.79 622.96V574.96H1360.59V622.96L1394.57 589.01L1410.75 605.21L1376.83 639.09H1424.79V661.99H1376.83L1410.75 695.91L1394.57 712.07L1360.59 678.16V726.12H1337.79V678.16L1303.79 712.07L1287.64 695.91L1321.59 661.99H1273.57V639.09Z" fill="#999999"/>
<path d="M1334.42 650.55C1334.42 654.206 1335.51 657.779 1337.54 660.819C1339.57 663.858 1342.46 666.226 1345.84 667.624C1349.22 669.022 1352.93 669.388 1356.52 668.674C1360.11 667.96 1363.4 666.199 1365.98 663.614C1368.57 661.029 1370.33 657.735 1371.04 654.149C1371.76 650.564 1371.39 646.847 1369.99 643.469C1368.6 640.09 1366.23 637.203 1363.19 635.17C1360.15 633.138 1356.58 632.052 1352.92 632.05C1350.49 632.048 1348.08 632.526 1345.84 633.455C1343.59 634.385 1341.55 635.747 1339.84 637.465C1338.12 639.184 1336.75 641.224 1335.83 643.469C1334.9 645.714 1334.42 648.12 1334.42 650.55Z" fill="#263442"/>
<path d="M486.17 650.14C486.158 675.301 493.609 699.901 507.579 720.827C521.55 741.753 541.413 758.066 564.656 767.702C587.898 777.338 613.477 779.865 638.156 774.962C662.835 770.059 685.505 757.947 703.3 740.158C721.094 722.369 733.213 699.703 738.124 675.025C743.034 650.348 740.516 624.769 730.887 601.523C721.258 578.277 704.952 558.409 684.03 544.432C663.108 530.454 638.511 522.996 613.35 523C596.649 522.991 580.11 526.273 564.678 532.658C549.247 539.044 535.225 548.408 523.414 560.216C511.602 572.023 502.234 586.042 495.843 601.472C489.453 616.901 486.166 633.439 486.17 650.14Z" fill="#263442"/>
<path d="M524.83 650.14C524.818 667.66 530.003 684.79 539.729 699.362C549.454 713.934 563.284 725.295 579.467 732.006C595.651 738.716 613.461 740.476 630.645 737.063C647.829 733.649 663.614 725.216 676.004 712.829C688.394 700.442 696.831 684.658 700.249 667.475C703.666 650.292 701.91 632.481 695.203 616.296C688.496 600.111 677.139 586.279 662.568 576.55C647.998 566.821 630.87 561.632 613.35 561.64C601.724 561.628 590.209 563.909 579.465 568.352C568.722 572.795 558.96 579.314 550.738 587.534C542.516 595.754 535.995 605.514 531.55 616.257C527.104 627 524.821 638.514 524.83 650.14Z" fill="#999999"/>
<path d="M542.98 650.14C542.974 664.057 547.095 677.663 554.822 689.237C562.55 700.811 573.536 709.834 586.391 715.165C599.247 720.495 613.394 721.893 627.044 719.182C640.695 716.472 653.234 709.774 663.078 699.936C672.921 690.098 679.626 677.562 682.345 663.914C685.063 650.265 683.673 636.117 678.35 623.258C673.027 610.4 664.01 599.409 652.44 591.675C640.87 583.941 627.267 579.812 613.35 579.81C594.7 579.831 576.82 587.246 563.628 600.43C550.437 613.614 543.012 631.49 542.98 650.14Z" fill="#263442"/>
<path d="M534 638.67H582.02L548.07 604.79L564.22 588.6L598.23 622.54V574.54H621.03V622.54L655 588.6L671.18 604.79L637.27 638.67H685.22V661.57H637.27L671.18 695.5L655 711.66L621.03 677.74V725.7H598.23V677.74L564.22 711.66L548.07 695.5L582.02 661.57H534V638.67Z" fill="#999999"/>
<path d="M594.85 650.14C594.854 653.796 595.941 657.368 597.975 660.406C600.009 663.444 602.897 665.811 606.276 667.207C609.654 668.604 613.371 668.968 616.956 668.253C620.541 667.538 623.834 665.776 626.418 663.191C629.002 660.605 630.762 657.311 631.475 653.726C632.188 650.14 631.822 646.424 630.423 643.046C629.025 639.669 626.656 636.781 623.618 634.749C620.579 632.717 617.006 631.632 613.35 631.63C610.919 631.629 608.512 632.107 606.266 633.036C604.021 633.966 601.98 635.33 600.262 637.049C598.544 638.768 597.181 640.809 596.253 643.056C595.324 645.302 594.847 647.709 594.85 650.14Z" fill="#263442"/>
<path d="M219.5 81H481.5V663H219.5V81Z" fill="#4D4D4D"/>
<path d="M233.53 98H467.47V663H233.53V98Z" fill="#9DD6E6"/>
<path d="M472.42 93V663H462.42V103H238.48V663H228.48V93H472.42Z" fill="black"/>
<path d="M77.7899 455H93.6299C97.3799 455 100.42 458.04 100.42 461.79V499.21C100.42 502.96 97.3799 506 93.6299 506H77.7899C74.0399 506 70.9999 502.96 70.9999 499.21V461.79C70.9999 458.04 74.0399 455 77.7899 455Z" fill="#FFD05C"/>
<path d="M1588 455H1617.42V506H1588V455Z" fill="#FFD05C"/>
<path d="M777 604H806.42V633H777V604Z" fill="#FFD05C"/>
<path d="M125 604H154.42V633H125V604Z" fill="#FFD05C"/>
<path d="M1143 604H1172.42V633H1143V604Z" fill="#FFD05C"/>
<path d="M1509 604H1538.42V633H1509V604Z" fill="#FFD05C"/>
<path d="M86.79 550H89.5701C90.1545 550 90.7331 549.885 91.2729 549.661C91.8128 549.438 92.3035 549.11 92.7167 548.697C93.1299 548.283 93.4576 547.793 93.6813 547.253C93.9049 546.713 94.02 546.134 94.02 545.55V523.46C94.0213 522.875 93.9072 522.295 93.6842 521.754C93.4612 521.213 93.1336 520.721 92.7202 520.307C92.3069 519.893 91.8158 519.564 91.2753 519.34C90.7347 519.115 90.1553 519 89.5701 519H86.8201C83.9557 519 81.2087 520.138 79.1833 522.163C77.158 524.189 76.02 526.936 76.02 529.8V539.2C76.02 542.059 77.1538 544.802 79.1727 546.826C81.1916 548.851 83.9309 549.992 86.79 550Z" fill="#FF5E4D"/>
<path d="M239 36H362V53H239V36Z" fill="#999999"/>
<path d="M139.3 45H67.6998C56.9055 45 46.5533 49.288 38.9205 56.9208C31.2878 64.5535 26.9998 74.9057 26.9998 85.7V157.3" stroke="black" stroke-width="10" stroke-miterlimit="10"/>
<path d="M10.92 106H45.0801C51.111 106 56 110.889 56 116.92V263.08C56 269.111 51.111 274 45.0801 274H10.92C4.8891 274 0 269.111 0 263.08V116.92C0 110.889 4.8891 106 10.92 106Z" fill="#2F334F"/>
<path d="M82 95.3901V404H194C197.978 404 201.794 402.42 204.607 399.607C207.42 396.794 209 392.978 209 389V110.37C209 106.392 207.42 102.577 204.607 99.7635C201.794 96.9505 197.978 95.3701 194 95.3701L82 95.3901Z" fill="#9DD6E6"/>
<path d="M194.03 90.3901C199.334 90.3901 204.421 92.4973 208.172 96.248C211.923 99.9987 214.03 105.086 214.03 110.39V389C214.03 394.304 211.923 399.392 208.172 403.142C204.421 406.893 199.334 409 194.03 409H82.0298V399H194.03C196.682 399 199.225 397.947 201.101 396.071C202.976 394.196 204.03 391.652 204.03 389V110.37C204.03 107.718 202.976 105.174 201.101 103.299C199.225 101.424 196.682 100.37 194.03 100.37H82.0298V90.3701L194.03 90.3901Z" fill="black"/>
</svg>
